<svg width="77" height="34" viewBox="0 0 77 34" fill="none" xmlns="http://www.w3.org/2000/svg">
<mask id="mask0_33_15896" style="mask-type:luminance" maskUnits="userSpaceOnUse" x="0" y="0" width="77" height="34">
<path d="M0 0H77V34H0V0Z" fill="white"/>
</mask>
<g mask="url(#mask0_33_15896)">
<path fill-rule="evenodd" clip-rule="evenodd" d="M3.3817 35.9307C3.36239 35.7973 3.31574 35.6693 3.24467 35.5547C3.17361 35.4401 3.07966 35.3414 2.9687 35.2647C2.74272 35.104 2.46227 35.0393 2.1887 35.0847C0.960703 35.0847 0.516703 36.1517 0.516703 37.1947C0.516703 38.2407 0.960703 39.3347 2.2097 39.3347C2.4857 39.3587 2.7617 39.2847 2.9847 39.1267C3.2087 38.9687 3.3667 38.7367 3.4277 38.4757H3.9177C3.8357 38.8617 3.6077 39.2037 3.2807 39.4357C2.94995 39.6697 2.5458 39.7762 2.1427 39.7357C0.625703 39.7347 0.0267029 38.5407 0.0267029 37.2347C0.0267029 35.6397 0.831703 34.7047 2.2097 34.7047C2.6337 34.6847 3.0517 34.8047 3.3967 35.0447C3.53615 35.1503 3.65083 35.2852 3.7327 35.4397C3.8137 35.5927 3.8597 35.7617 3.8667 35.9347H3.3507L3.3807 35.9297L3.3817 35.9307ZM10.6537 34.7847H13.6467V35.1647H11.1027V36.9407H13.5487V37.3157H11.1027V39.2757H13.7497V39.6657H10.6537V34.7847ZM21.7937 35.1647H20.1637V34.7847H23.8437V35.1647H22.2437V39.6647H21.7937V35.1647ZM32.1167 36.9407H30.8867V34.7847H30.4377V39.6647H32.1197C33.1527 39.6647 33.7667 39.1647 33.7667 38.2997C33.7667 37.4347 33.1367 36.9397 32.1147 36.9397L32.1167 36.9407ZM31.9867 39.2757H30.8877V37.3307H31.9917C32.8437 37.3307 33.2667 37.6557 33.2667 38.3007C33.2667 38.9457 32.8597 39.2757 31.9917 39.2757H31.9867ZM47.1557 34.7847H47.6257V36.9407L49.8597 34.7857H50.4427L48.1157 36.9857L50.6547 39.6657H50.0347L47.6247 37.1157V39.6657H47.1547V34.7857L47.1557 34.7847ZM60.4067 39.6647V35.3347H60.3817L57.7137 39.6647H57.2027V34.7847H57.6567V39.0347H57.6767L60.2887 34.7847H60.8617V39.6647H60.4067ZM67.9207 34.7847H68.3757V36.9407H71.1257V34.7847H71.5797V39.6647H71.1267V37.3297H68.3767V39.6647H67.9217L67.9207 34.7847ZM80.6497 34.6877C79.2507 34.6877 78.4247 35.6227 78.4247 37.1877C78.4247 38.5527 79.0857 39.6877 80.6497 39.6877C82.2127 39.6877 82.9047 38.5727 82.9047 37.1877C82.9047 35.8027 82.2187 34.6877 80.6497 34.6877ZM80.6747 39.3377C79.5817 39.3377 78.9107 38.5127 78.9107 37.1777C78.9107 35.8427 79.5967 35.0777 80.6747 35.0777C81.7547 35.0777 82.3947 35.8877 82.3887 37.2127C82.3837 38.5377 81.7387 39.3427 80.6757 39.3427L80.6747 39.3377ZM90.7067 35.1647H89.0817V34.7847H92.7557V35.1647H91.1617V39.6647H90.7067V35.1647ZM99.3567 34.7847H102.35V35.1647H99.8057V36.9407H102.252V37.3157H99.8057V39.2757H102.448V39.6657H99.3577V34.7857L99.3567 34.7847ZM111.408 34.7847H110.892L108.91 39.6647H109.374L109.89 38.3247H112.393L112.935 39.6647H113.425L111.408 34.7847ZM110.014 37.9607L111.129 35.1957L112.213 37.9607H110.014ZM120.562 35.1647H118.931V34.7847H122.616V35.1647H121.016V39.6647H120.562V35.1647ZM131.879 35.0247C131.494 34.8166 131.054 34.7327 130.62 34.7847H129.216V39.6647H129.645V37.5197H130.62C131.099 37.5607 131.58 37.4597 131.998 37.2297C132.165 37.1031 132.299 36.9386 132.39 36.7497C132.48 36.5617 132.522 36.3567 132.514 36.1497C132.523 35.9237 132.468 35.6996 132.357 35.5027C132.243 35.3031 132.078 35.138 131.879 35.0247ZM131.281 37.0847C131.064 37.1223 130.844 37.1374 130.625 37.1297H129.645V35.1647H130.749C131.451 35.1647 132.029 35.3797 132.029 36.1647C132.046 36.382 131.979 36.5977 131.842 36.7667C131.701 36.9387 131.501 37.052 131.281 37.0847ZM141.262 34.6877C139.868 34.6877 139.043 35.6227 139.043 37.1877C139.043 38.5527 139.703 39.6877 141.262 39.6877C142.82 39.6877 143.496 38.6177 143.496 37.2327C143.496 35.8477 142.841 34.6877 141.262 34.6877ZM141.262 39.3377C140.178 39.3377 139.512 38.5127 139.512 37.1777C139.512 35.8427 140.183 35.0777 141.262 35.0777C142.34 35.0777 142.985 35.8877 142.985 37.2127C142.985 38.5377 142.356 39.3427 141.288 39.3427L141.262 39.3377ZM152.658 37.1127C152.906 37.0577 153.13 36.9277 153.296 36.7417C153.462 36.5581 153.564 36.3248 153.585 36.0778C153.606 35.8309 153.545 35.5838 153.412 35.3747C153.276 35.1632 153.077 34.9998 152.844 34.9077C152.512 34.7957 152.161 34.7531 151.812 34.7827H150.408V39.6627H151.812C152.384 39.7223 152.958 39.5673 153.422 39.2277C153.552 39.1167 153.656 38.9777 153.725 38.8237C153.795 38.6701 153.828 38.5025 153.824 38.3337C153.824 38.0232 153.704 37.7246 153.489 37.5007C153.269 37.2729 152.973 37.1346 152.658 37.1127ZM150.836 35.1577H152.07C152.196 35.1392 152.324 35.147 152.447 35.1807C152.57 35.2145 152.685 35.2734 152.784 35.3537C152.881 35.4337 152.96 35.5337 153.015 35.6447C153.085 35.7921 153.113 35.9562 153.095 36.1187C153.078 36.2811 153.015 36.4353 152.914 36.5637C152.785 36.7258 152.606 36.8399 152.405 36.8877C152.252 36.921 152.097 36.9362 151.941 36.9327H150.831V35.1627L150.836 35.1577ZM152.539 39.2027C152.282 39.2659 152.018 39.2879 151.755 39.2677H150.836V37.3277H152.023C152.207 37.302 152.394 37.3163 152.573 37.3698C152.751 37.4233 152.915 37.5147 153.055 37.6377C153.213 37.8014 153.305 38.0179 153.313 38.2455C153.321 38.473 153.244 38.6955 153.098 38.8697C152.954 39.0434 152.755 39.1626 152.534 39.2077L152.539 39.2027ZM50.2567 9.98574C52.4547 10.1357 54.5907 10.3407 56.7227 10.4857V29.8057H50.2557V22.6507L45.9937 22.5157V29.8057C43.7947 29.8057 41.6637 29.8057 39.5267 29.7407V8.89074C41.6637 9.09574 43.7947 9.39074 45.9937 9.58074V16.5807L50.2557 16.7907L50.2567 9.98574ZM12.5367 16.2347C13.4607 14.3747 17.2237 7.28974 18.2137 5.56474C15.7367 5.06474 13.2437 4.60474 10.8337 4.11974C10.1887 5.61974 7.4897 11.9647 6.8497 13.6197L6.7827 13.5547V3.17974C4.6727 2.69474 2.4527 2.23474 0.321703 1.66474V29.6647H6.7827V18.4597H6.8497C7.4897 20.3847 10.2617 27.8897 10.9787 29.6697C13.6107 29.6697 16.1707 29.7397 18.7197 29.7397C17.6517 27.5347 13.5597 18.5897 12.5267 16.2397L12.5367 16.2347ZM24.9687 22.9947V6.73474C23.0537 6.46474 21.2007 6.11474 19.3587 5.77474V29.7347H28.8027C29.3757 27.0547 31.5067 16.5247 32.0747 13.9047V29.7347H37.6997V8.68474C34.5057 8.18474 31.3057 7.79474 28.0397 7.30474C27.5227 9.85474 25.5517 20.3047 24.9837 22.9947H24.9687ZM89.6067 21.1927H89.5247C89.1847 19.4877 87.6827 12.6027 87.3267 10.9477C84.1317 11.0227 81.0047 11.0927 77.8097 11.0927V29.8027H83.3477V15.0827H83.4817C83.9977 17.4877 86.1137 27.3277 86.6817 29.8027H92.0747C92.5907 27.3027 94.7787 17.2177 95.3467 14.6677H95.4137V29.8027H101.245V10.1327C98.1487 10.4027 94.9177 10.6027 91.7187 10.7527C91.3677 12.4727 89.9427 19.4927 89.5967 21.1977L89.6067 21.1927ZM150.619 22.5147C149.766 22.5937 148.912 22.3746 148.203 21.8947C147.49 21.3065 146.936 20.5482 146.593 19.6897C146.193 18.517 146.001 17.2835 146.026 16.0447C145.999 14.8002 146.215 13.5623 146.66 12.3997C147.012 11.4203 147.603 10.544 148.379 9.84974C149.089 9.23832 149.94 8.81232 150.856 8.60974C151.952 8.52228 153.052 8.7114 154.056 9.15974V1.73474C153.06 1.66474 152.203 1.66474 151.635 1.66474C150.918 1.66421 150.204 1.75323 149.509 1.92974C148.097 2.27174 146.759 2.85774 145.561 3.65974C144.338 4.50328 143.262 5.54214 142.377 6.73474C141.475 7.96811 140.778 9.3391 140.313 10.7947C140.24 10.8697 140.24 11.0047 140.168 11.0697C139.647 12.8565 139.387 14.7088 139.394 16.5697C139.369 18.4864 139.631 20.396 140.173 22.2347C140.187 22.3817 140.236 22.5247 140.318 22.6497C140.718 24.0138 141.396 25.2803 142.31 26.3697C143.148 27.4688 144.245 28.3431 145.504 28.9147C146.75 29.4957 148.107 29.8026 149.483 29.8147C151.092 29.7784 152.671 29.3766 154.102 28.6397V21.2697C153.064 21.9667 151.868 22.3946 150.624 22.5147H150.619ZM75.9737 16.3207C75.6209 15.1723 75.0142 14.1179 74.1987 13.2357C73.3467 12.4123 72.3301 11.7784 71.2157 11.3757C69.9631 10.9213 68.6412 10.6878 67.3087 10.6857H67.2417C65.9252 10.5979 64.6034 10.7383 63.3347 11.1007C62.2124 11.453 61.1888 12.0645 60.3467 12.8857C59.5301 13.746 58.9228 14.7828 58.5717 15.9157C58.1282 17.2948 57.9137 18.7373 57.9367 20.1857C57.9147 21.6557 58.1287 23.1197 58.5717 24.5257C58.9072 25.6846 59.5159 26.746 60.3467 27.6207C61.2001 28.4606 62.2172 29.1158 63.3347 29.5457C64.5877 29.9787 65.9117 30.1887 67.2417 30.1657H67.3087C68.6387 30.1757 69.9587 29.9657 71.2157 29.5457C72.3306 29.144 73.3473 28.51 74.1987 27.6857C75.0111 26.8339 75.6182 25.8078 75.9737 24.6857C76.4417 23.3307 76.6787 21.9097 76.6757 20.4807C76.6837 19.0639 76.4462 17.6565 75.9737 16.3207ZM69.6977 22.9257C69.6122 23.5937 69.368 24.2314 68.9857 24.7857C68.7923 25.0508 68.5368 25.2644 68.2417 25.4077C67.9432 25.5527 67.6144 25.624 67.2827 25.6157H67.2157C66.8004 25.6032 66.3973 25.4724 66.0537 25.2387C65.7148 25.009 65.4511 24.6845 65.2957 24.3057C64.8677 23.4007 64.6557 22.1057 64.6557 20.3057C64.6557 18.5057 64.8677 17.2657 65.2957 16.4507C65.4357 16.0657 65.6947 15.7327 66.0387 15.4977C66.3827 15.2627 66.7947 15.1377 67.2157 15.1407C67.2157 15.2057 67.2157 15.2057 67.2827 15.2057C68.2737 15.2057 68.9857 15.7557 69.3467 16.7957C69.7334 17.9476 69.9254 19.1558 69.9147 20.3707C69.9307 21.2277 69.8587 22.0837 69.6977 22.9257ZM116.45 8.60974C114.901 8.75974 113.399 8.95974 111.836 9.10974C110.411 9.31474 108.992 9.45474 107.578 9.60974C106.577 13.0447 102.603 26.5347 101.607 29.8347H108.063C108.414 28.3347 109.064 25.4347 109.064 25.4347L114.53 25.2947C114.53 25.2947 115.309 28.2497 115.665 29.7697H122.415C121.425 26.0997 117.44 11.9847 116.45 8.60974ZM109.988 20.4497C109.988 20.4497 111.536 14.7397 111.836 13.5747H111.903C112.192 14.6747 113.75 20.2447 113.75 20.2447L109.988 20.4497Z" fill="white"/>
</g>
</svg>
