<svg width="19" height="19" viewBox="0 0 19 19" fill="none" xmlns="http://www.w3.org/2000/svg">
<path d="M11.651 7.87032C11.651 8.52124 11.3925 9.1455 10.9322 9.60577C10.4719 10.066 9.84765 10.3246 9.19673 10.3246C8.54581 10.3246 7.92155 10.066 7.46128 9.60577C7.00101 9.1455 6.74243 8.52124 6.74243 7.87032C6.74243 7.21939 7.00101 6.59513 7.46128 6.13486C7.92155 5.67459 8.54581 5.41602 9.19673 5.41602C9.84765 5.41602 10.4719 5.67459 10.9322 6.13486C11.3925 6.59513 11.651 7.21939 11.651 7.87032ZM9.19673 8.68572C9.41359 8.68572 9.62156 8.59957 9.7749 8.44623C9.92824 8.29289 10.0144 8.08492 10.0144 7.86807C10.0144 7.65121 9.92824 7.44324 9.7749 7.2899C9.62156 7.13656 9.41359 7.05042 9.19673 7.05042C9.08707 7.04678 8.9778 7.06523 8.87543 7.10469C8.77305 7.14414 8.67965 7.20378 8.60079 7.28007C8.52193 7.35635 8.45922 7.44772 8.4164 7.54874C8.37357 7.64975 8.3515 7.75835 8.3515 7.86807C8.3515 7.97778 8.37357 8.08638 8.4164 8.1874C8.45922 8.28841 8.52193 8.37978 8.60079 8.45606C8.67965 8.53235 8.77305 8.59199 8.87543 8.63145C8.9778 8.6709 9.08707 8.68935 9.19673 8.68572Z" fill="white"/>
<path d="M18.1968 9.50473C18.1968 14.4754 14.1675 18.5047 9.19678 18.5047C4.22608 18.5047 0.196777 14.4754 0.196777 9.50473C0.196777 4.53403 4.22608 0.50473 9.19678 0.50473C14.1675 0.50473 18.1968 4.53403 18.1968 9.50473ZM14.4735 14.641C15.4839 13.6033 16.166 12.2907 16.4344 10.8673C16.7028 9.44397 16.5455 7.97309 15.9823 6.63864C15.4192 5.30419 14.475 4.1654 13.268 3.36471C12.061 2.56402 10.6448 2.13697 9.19633 2.13697C7.7479 2.13697 6.33162 2.56402 5.12463 3.36471C3.91763 4.1654 2.9735 5.30419 2.41032 6.63864C1.84713 7.97309 1.68989 9.44397 1.95827 10.8673C2.22664 12.2907 2.90871 13.6033 3.91918 14.641C4.35736 13.6035 5.09165 12.7182 6.03024 12.0957C6.96883 11.4733 8.07009 11.1413 9.19633 11.1413C10.3226 11.1413 11.4238 11.4733 12.3624 12.0957C13.301 12.7182 14.0353 13.6035 14.4735 14.641ZM13.1271 15.7309C12.8808 14.8786 12.3642 14.1295 11.655 13.5964C10.9458 13.0634 10.0826 12.7754 9.19542 12.7758C8.30826 12.7762 7.44528 13.065 6.73659 13.5987C6.0279 14.1324 5.51193 14.882 5.26648 15.7345C6.44275 16.4773 7.80561 16.8712 9.19678 16.8703C10.5886 16.8722 11.952 16.4769 13.1271 15.7309Z" fill="white"/>
</svg>
