<svg width="21" height="21" viewBox="0 0 21 21" fill="none" xmlns="http://www.w3.org/2000/svg">
<path d="M10.0267 0.734741C8.77454 0.735305 7.54522 1.07007 6.46566 1.70446C5.3861 2.33886 4.49542 3.2499 3.88559 4.34352C3.27575 5.43715 2.96886 6.67372 2.9966 7.92558C3.02434 9.17743 3.3857 10.3992 4.04337 11.4647L9.63004 20.4547C9.68107 20.5404 9.75356 20.6113 9.84037 20.6604C9.92719 20.7095 10.0253 20.7352 10.125 20.7347H10.13C10.2303 20.7338 10.3286 20.7069 10.4153 20.6567C10.5021 20.6064 10.5743 20.5346 10.625 20.4481L16.0684 11.3647C16.7031 10.2971 17.0438 9.08046 17.056 7.83846C17.0681 6.59646 16.7512 5.37339 16.1375 4.29356C15.5237 3.21373 14.635 2.31563 13.5617 1.69055C12.4884 1.06547 11.2688 0.735697 10.0267 0.734741ZM15.06 10.7681L10.1184 19.0231L5.04004 10.8447C4.46564 9.92127 4.16084 8.85561 4.16004 7.76807C4.16312 6.21293 4.78215 4.72234 5.88165 3.62253C6.98115 2.52272 8.47156 1.90326 10.0267 1.89974C11.5816 1.90326 13.0717 2.52249 14.1712 3.62194C15.2706 4.72139 15.8899 6.21155 15.8934 7.76641C15.8934 8.82641 15.6 9.86474 15.06 10.7681Z" fill="white"/>
<path d="M10.0267 4.2514C9.5649 4.25162 9.10765 4.3428 8.68108 4.51973C8.2545 4.69666 7.86695 4.95588 7.54055 5.28259C7.21415 5.6093 6.9553 5.9971 6.77877 6.42384C6.60224 6.85059 6.5115 7.30792 6.51172 7.76974C6.51194 8.23155 6.60312 8.6888 6.78005 9.11538C6.95698 9.54196 7.2162 9.92951 7.54291 10.2559C7.86961 10.5823 8.25741 10.8412 8.68416 11.0177C9.1109 11.1942 9.56824 11.285 10.0301 11.2847C10.9627 11.2843 11.857 10.9134 12.5162 10.2536C13.1754 9.59374 13.5455 8.69908 13.5451 7.7664C13.5446 6.83373 13.1737 5.93942 12.5139 5.28023C11.8541 4.62104 10.9594 4.25096 10.0267 4.2514ZM10.0267 10.1164C9.71811 10.1165 9.41251 10.0558 9.12735 9.93784C8.84219 9.81984 8.58307 9.64683 8.36477 9.42869C8.14648 9.21055 7.97329 8.95155 7.85509 8.66648C7.73689 8.38141 7.676 8.07584 7.67589 7.76724C7.67578 7.45863 7.73645 7.15303 7.85445 6.86787C7.97245 6.58271 8.14546 6.32359 8.3636 6.10529C8.58174 5.887 8.84074 5.71381 9.12581 5.59561C9.41088 5.47741 9.71645 5.41651 10.0251 5.4164C10.6485 5.41618 11.2466 5.66365 11.6876 6.10436C12.1286 6.54507 12.3765 7.14292 12.3767 7.7664C12.3769 8.38988 12.1295 8.98792 11.6888 9.42894C11.2481 9.86996 10.6502 10.1162 10.0267 10.1164Z" fill="white"/>
</svg>
