<svg width="12" height="12" viewBox="0 0 12 12" fill="none" xmlns="http://www.w3.org/2000/svg">
    <path fill-rule="evenodd" clip-rule="evenodd" d="M0.432129 6.8287L6.71713 0.543701L7.96313 1.7892C7.66841 2.08392 7.50283 2.48365 7.50283 2.90045C7.50283 3.31725 7.66841 3.71698 7.96313 4.0117C8.25785 4.30642 8.65758 4.472 9.07438 4.472C9.49118 4.472 9.89091 4.30642 10.1856 4.0117L11.4321 5.2577L5.14613 11.5427L3.90013 10.2977C4.18857 10.0018 4.34883 9.6041 4.3462 9.19084C4.34356 8.77759 4.17826 8.38201 3.88607 8.08976C3.59388 7.7975 3.19834 7.63211 2.78509 7.62938C2.37184 7.62666 1.97414 7.78683 1.67813 8.0752L0.432129 6.8282V6.8287ZM4.43163 5.2717L6.82263 7.6632L7.67113 6.8147L5.28013 4.4232L4.43163 5.2717Z" fill="currentColor"/>
</svg>